<svg xmlns="http://www.w3.org/2000/svg" width="40" height="40" viewBox="0 0 40 40">
  <g id="그룹_11" data-name="그룹 11" transform="translate(-2098 -2333)">
    <rect id="사각형_85" data-name="사각형 85" width="40" height="40" transform="translate(2098 2333)" fill="none"/>
    <path id="패스_11" data-name="패스 11" d="M.542,31.511c-.183.379,1.846,4.225,5.473,5.282s7.516-1.619,7.516-1.619,1.912-1.55-1.319-8.1S7.993,19.256,8.388,15.736A18.983,18.983,0,0,1,22.168.664c10.088-2.887,14.9,4.578,14.9,4.578a1.5,1.5,0,0,1-.4,1.267c-.524.436-1.846-.281-1.846-.281s-1.781-3.945-5.209-4.086-4.883,3.015-5.143,3.381-.461,5.352,3.429,10.493,2.044,12.325.857,13.452-6.531,6.606-6.528,7.042,2.9-4.225,1.912-8.38-5.34-9.61-5.34-9.61,2.676,6.632,2.9,9.821-2.434,10.071-5.8,10.352A92,92,0,0,1,5.38,38.388c1.255.313-3.386-.877-4.838-3a3.883,3.883,0,0,1,0-3.873" transform="translate(2099 2334)" fill="#6aae27"/>
  </g>
</svg>
