<svg width="153" height="25" viewBox="0 0 153 25" fill="none" xmlns="http://www.w3.org/2000/svg">
<path d="M152.858 12.6784L148.376 12.6193V15.7662C148.376 19.8143 147.691 22.7839 147.363 23.6703C147.148 23.9215 146.649 24.0692 146.349 23.9806C146.164 23.2714 145.778 21.0701 145.778 17.4061V3.25246C145.778 2.66149 144.165 1.43524 143.566 1.24317C143.409 1.18407 143.923 0.563561 144.08 0.563561C145.307 0.563561 148.533 1.33182 148.462 1.92278C148.405 2.32168 148.376 2.79446 148.376 3.31155V11.4078L151.773 10.019C152.073 9.90082 153.415 12.6784 152.872 12.6784M143.551 14.2149C144.023 14.8945 142.752 17.7754 142.295 17.0958C141.639 16.1355 139.84 13.2989 138.227 11.4078C136.072 14.5251 133.389 17.0367 130.976 18.3664C130.677 18.3369 130.32 17.8789 130.32 17.5982C133.303 14.8502 136.672 10.0338 138.085 5.64587C138.17 5.39471 137.157 4.62645 136.714 4.34574C136.572 4.2571 137.185 3.78432 137.342 3.78432C138.156 3.78432 140.411 4.74464 140.954 5.14355C141.253 5.36516 141.282 5.5129 141.139 5.88225C140.54 7.49264 139.74 9.02915 138.841 10.4475C140.868 11.8953 143.109 13.5648 143.551 14.2149ZM129.064 12.9443L124.553 12.8556V15.7662C124.553 19.8143 123.925 22.7839 123.568 23.6703C123.354 23.9215 122.854 24.0692 122.583 23.9806C122.369 23.2714 122.012 21.0701 122.012 17.4061V3.25246C122.012 2.66149 120.399 1.49433 119.8 1.24317C119.657 1.18407 120.157 0.563561 120.314 0.563561C121.541 0.563561 124.696 1.33182 124.639 1.92278C124.61 2.32168 124.553 2.79446 124.553 3.31155V11.6589L127.965 10.2997C128.293 10.152 129.635 12.9295 129.064 12.9295M114.404 14.3331C115.661 14.3331 116.588 13.4318 116.588 12.0431C116.588 10.6543 115.718 9.72353 114.404 9.72353C113.091 9.72353 112.221 10.6543 112.221 12.0431C112.221 13.4318 113.091 14.3331 114.404 14.3331ZM110.137 2.52852C110.108 2.41033 110.251 2.0262 110.408 2.04098C111.307 2.21827 112.221 2.38078 113.362 2.52852L116.146 2.83878C116.388 2.86833 117.459 4.39006 116.745 4.39006H112.535C111.821 4.39006 110.179 2.77968 110.122 2.52852M107.339 5.9709C107.31 5.88225 107.482 5.572 107.553 5.60154C108.024 5.77883 109.694 5.82316 111.278 5.79361L116.974 5.73451C118.615 5.70496 119.1 4.86284 119.357 4.86284C119.629 4.86284 120.671 6.35503 120.671 7.04941C120.671 7.1676 120.556 7.24147 120.371 7.24147C120.1 7.24147 118.515 7.15283 117.259 7.15283L111.136 7.18238C110.151 7.18238 109.494 7.40399 109.194 7.6847C108.424 7.46309 107.467 6.26638 107.367 5.95612M120.942 17.5538C118.487 18.721 113.776 19.4006 110.55 19.8143C109.68 19.9325 109.152 20.095 108.638 20.4052C107.81 20.1836 106.611 18.9278 106.497 18.4551C106.525 18.3073 106.639 18.1743 106.711 18.0857C107.61 18.0857 108.923 18.1152 110.508 18.0266C111.493 17.9675 112.42 17.9084 113.263 17.8345L113.106 15.3968C111.022 15.0274 109.737 13.7569 109.737 11.9987C109.737 10.0781 111.35 8.77799 113.891 8.63024C113.919 8.51205 113.948 8.43818 113.948 8.31999C113.948 8.09838 113.891 7.83244 113.591 7.61083C113.591 7.07896 115.232 7.61083 115.232 7.89154C115.232 8.00973 115.09 8.34954 115.018 8.63024C117.502 8.80753 119.072 10.1077 119.072 11.9987C119.072 13.7569 117.73 15.0274 115.675 15.3968L115.561 17.5982C118.158 17.2879 119.914 16.8594 121.085 16.4605C121.327 16.3719 121.227 17.3913 120.928 17.5391M89.8392 3.76955L89.8107 8.49728H96.1768L96.3338 3.76955H89.8249H89.8392ZM85.7141 2.72059C85.6855 2.57284 86.0709 2.10007 86.2565 2.10007C86.7275 2.10007 88.3547 2.15917 89.4253 2.35123H95.4916C96.2624 2.35123 96.6621 2.23304 96.9618 1.95233C97.2901 1.83414 99.4169 2.17394 99.3741 2.5433L98.4749 8.23134C98.8603 8.6007 99.3741 9.3394 99.3741 9.73831C99.3741 9.8565 99.2599 9.93037 99.0744 9.93037C98.8032 9.93037 97.7897 9.90082 96.2624 9.90082H89.5395C89.3682 10.2111 89.1541 10.4918 88.9114 10.7873C88.6688 11.0384 88.2263 11.1566 87.898 11.068C87.6268 10.3884 87.3984 9.08824 87.2128 6.73915L86.9702 3.7991C86.9416 3.51839 86.1709 2.89788 85.7141 2.72059ZM100.859 22.8134C100.859 22.9316 100.773 23.0055 100.559 23.0055H97.7469L89.3825 23.035C87.0558 23.035 86.5991 22.2077 86.5991 20.5973V18.1891C86.5991 17.7607 85.7284 17.022 85.2288 16.9481C85.0718 16.9185 85.6142 16.2094 85.8283 16.2094C86.7846 16.2094 88.212 16.431 88.9257 16.7117C89.0684 16.7708 89.2825 16.8594 89.2254 17.1697C89.1683 17.5391 89.1683 18.0709 89.1683 18.5289V20.6269C89.1683 21.4985 89.4681 21.6167 90.2103 21.6167L97.233 21.5872C98.7175 21.5872 99.2028 20.7303 99.3884 20.7303C99.7738 20.7303 100.859 22.1486 100.859 22.7987M103.514 13.6535C103.514 13.8012 103.399 13.8751 103.214 13.8751H94.5496V15.515C94.5496 17.1845 93.9501 18.6323 93.5361 19.2824C93.322 19.5336 92.851 19.6518 92.5512 19.5631C92.3086 18.7949 91.9517 17.7754 91.9517 15.9139V13.8751H86.128C85.1431 13.8751 84.4865 14.1558 84.1868 14.4365C83.416 14.2149 81.8602 12.9591 81.8602 12.6784C81.8602 12.5602 82.0029 12.2499 82.0743 12.2795C82.5453 12.4567 84.2153 12.4715 85.7997 12.4715L99.2028 12.442C100.901 12.442 101.472 11.4521 101.686 11.4521C101.986 11.4521 103.514 12.9591 103.514 13.6387M65.3311 6.48799C65.3311 8.30521 66.473 9.51669 68.2002 9.51669C69.9273 9.51669 71.2405 8.30521 71.2405 6.48799C71.2405 4.67077 70.0129 3.45929 68.2287 3.45929C66.4445 3.45929 65.3311 4.68555 65.3311 6.48799ZM62.7333 6.57664C62.7333 4.03548 64.7031 2.33646 67.7434 2.15917C67.7719 2.07052 67.8005 1.99665 67.8005 1.90801C67.8005 1.65685 67.7434 1.37614 67.3866 1.1102C67.3866 0.548787 69.2136 1.1102 69.2136 1.42046C69.2136 1.53865 69.0709 1.87846 68.9995 2.15917C71.8971 2.38078 73.8098 4.07981 73.8098 6.57664C73.8098 9.20644 71.5973 10.935 68.2858 10.935C64.9743 10.935 62.7333 9.20644 62.7333 6.57664ZM79.0911 14.3035C79.0911 14.4217 78.9769 14.4956 78.7913 14.4956H72.8534V15.8548C72.8534 19.6813 72.1968 22.6509 71.84 23.5226C71.6259 23.7737 71.1263 23.8919 70.8551 23.8328C70.641 23.1237 70.2556 20.9223 70.2556 17.4947V14.4956L66.0734 14.5251V15.382C66.0734 19.179 65.4168 22.1486 65.0885 23.0203C64.8744 23.2714 64.3748 23.3896 64.075 23.3305C63.8895 22.6214 63.5041 20.42 63.5041 17.022V14.5251H61.7056C60.7207 14.5251 60.0641 14.8058 59.7643 15.0865C58.9936 14.8649 57.4377 13.6091 57.4377 13.2989C57.4377 13.2102 57.5805 12.9 57.6518 12.9295C58.1229 13.092 59.7929 13.1216 61.3773 13.1216L74.7804 13.0625C76.479 13.0625 77.0499 12.0726 77.264 12.0726C77.5638 12.0726 79.0911 13.5944 79.0911 14.274M41.1228 5.35038C41.1228 6.90167 42.2504 8.00973 43.9347 8.00973C45.619 8.00973 46.7467 6.90167 46.7467 5.35038C46.7467 3.7991 45.619 2.75013 43.9347 2.75013C42.2504 2.75013 41.1228 3.82865 41.1228 5.35038ZM38.525 5.46858C38.525 3.23768 40.4091 1.61253 43.3352 1.42046C43.3638 1.27272 43.4209 1.1693 43.4209 1.02156C43.4209 0.770399 43.3352 0.504464 43.0069 0.253304C43.0069 -0.337662 44.834 0.253304 44.834 0.534012C44.834 0.711302 44.6484 1.09543 44.5342 1.40569C47.4318 1.59775 49.373 3.22291 49.373 5.4538C49.373 7.80289 47.1606 9.47237 43.9347 9.47237C40.7088 9.47237 38.525 7.80289 38.525 5.4538M51.4856 23.2714C51.4856 23.4192 51.3714 23.4635 51.1858 23.4635H40.5518C38.7248 23.4635 38.0825 22.8134 38.0396 21.336L37.9826 19.4449C37.9826 19.1642 37.2689 18.7949 36.8121 18.588C36.7836 18.4403 37.1975 17.9675 37.4116 17.9675C37.9255 17.9675 39.881 18.0857 40.5804 18.3369H47.5032L47.5317 16.0469H40.6089C39.7668 16.0469 39.2101 16.2685 38.9103 16.564C37.9255 16.4162 37.1261 15.0865 37.1118 14.8945C37.0833 14.7467 37.226 14.466 37.3545 14.4956C38.2252 14.6581 39.3243 14.6581 40.9087 14.6581H46.5754C47.3462 14.6581 47.7458 14.5695 48.0456 14.2592C48.3739 14.2296 50.5578 14.4808 50.4864 14.8502L49.8012 18.1891C50.3151 18.588 50.6434 19.2676 50.6434 19.4301C50.6434 19.5779 50.5578 19.6813 50.4293 19.6813C50.1866 19.6813 48.6308 19.6518 47.3604 19.6518H40.5804V20.8928C40.5804 21.8531 40.8516 22.0452 42.0791 22.0452H48.0741C49.7727 22.0452 50.0153 21.3065 50.2009 21.3065C50.5863 21.3065 51.4856 22.6361 51.4856 23.2271M54.6115 12.3238C54.6115 12.442 54.4973 12.5158 54.3118 12.5158H50.4578L37.2403 12.5454C36.284 12.5454 35.6274 12.8261 35.3276 13.0773C34.5283 12.8557 33.1152 11.6294 33.001 11.3191C32.9725 11.2305 33.1437 10.9202 33.2151 10.9498C33.6861 11.1271 35.3419 11.1566 36.9406 11.1566L50.3151 11.0975C51.9851 11.0975 52.5561 10.1077 52.7987 10.1077C53.0985 10.1077 54.5972 11.6294 54.5972 12.309M24.4082 12.2647C24.4082 12.5158 24.2226 12.5158 23.566 12.7227C23.2948 12.8113 23.1521 13.2546 22.938 13.9637C22.4669 15.4559 20.9682 17.8641 17.8565 17.8641C14.7448 17.8641 13.1033 15.1161 12.9891 14.9684C12.8321 14.7467 12.5752 14.5399 12.3611 14.5399C12.2184 14.5399 12.1184 14.599 12.0328 14.6581C10.9052 15.4559 9.67763 16.3571 9.67763 18.4255C9.67763 19.7847 10.7767 21.336 12.6323 21.336C14.2167 21.336 15.2587 19.7847 15.587 18.7062C15.7012 18.3369 15.6726 18.1891 15.8582 18.1891C16.1008 18.1891 16.1865 18.7505 16.5148 18.7505C16.786 18.7505 16.7003 18.6028 17.0572 18.6028C17.3855 18.6028 17.4711 19.0608 17.7423 19.0608C18.1277 19.0608 18.6416 18.721 18.8985 18.721C18.9841 18.721 19.1126 18.721 19.1126 18.8096C19.1126 18.9574 18.8699 19.0903 18.6416 19.2972C18.1705 19.7256 17.828 19.9768 17.4711 20.5973C16.215 22.7986 14.7591 23.1976 14.0169 23.4339C13.7457 23.5226 13.4745 23.6556 13.3603 23.9215C12.9463 24.8818 12.7037 25 12.5895 25C12.4467 25 12.4039 24.8375 12.3754 24.4681C12.3468 24.0692 12.1327 23.6112 11.3905 23.4783C9.50634 23.1089 7.17972 21.1292 7.17972 18.0118C7.17972 15.2047 9.23514 14.1115 10.2771 13.0329C10.4199 12.8852 10.5198 12.7227 10.5198 12.4715V12.3829C10.5198 12.2499 10.4912 12.0726 10.3199 11.851C9.27796 10.4918 8.4929 9.59056 7.06553 9.59056C5.50968 9.59056 4.1394 10.9202 4.1394 12.8409C4.1394 14.9093 5.12429 15.6184 6.10918 15.8696C6.43748 15.9582 6.55167 15.9878 6.55167 16.0912C6.55167 16.3128 6.33756 16.2685 6.33756 16.6083C6.33756 16.8594 6.52312 16.8299 6.52312 17.2288C6.52312 17.5095 6.28047 17.5982 6.28047 18.0266C6.28047 18.3664 6.43748 18.4846 6.43748 18.6767C6.43748 18.9278 6.58022 18.8983 6.58022 19.4449C6.58022 19.5927 6.63731 19.6961 6.52312 19.6961C6.40893 19.6961 6.28047 19.504 6.10918 19.2381C5.72379 18.6471 5.30985 18.2778 5.0101 18.0414C2.62638 16.2537 2.54073 15.4707 1.94124 14.2444C1.7985 13.9637 1.75568 13.4762 1.4702 13.3432C0.599499 12.8852 0 12.7522 0 12.0135C0 11.6737 0.385392 12.0135 0.984891 12.0135C1.31319 12.0135 1.69858 12.0726 1.88414 11.3635C2.29808 9.8565 4.01093 7.44831 7.0227 7.44831C10.22 7.44831 11.8044 10.1963 11.9186 10.344C12.1327 10.6543 12.3326 10.7725 12.5467 10.7725C12.6894 10.7725 12.7893 10.7725 13.032 10.5509C15.0588 8.68934 15.2159 7.86199 15.2159 6.78348C15.2159 5.42425 14.1739 3.84342 12.3183 3.84342C10.4627 3.84342 9.57771 5.36516 9.33506 6.50277C9.24942 6.87212 9.19232 7.06419 9.03531 7.06419C8.79265 7.06419 8.79265 6.72438 8.52145 6.72438C8.07896 6.72438 8.03614 6.91644 7.80776 6.91644C7.50801 6.91644 7.50801 6.35503 7.06553 6.35503C6.95134 6.35503 6.70868 6.50277 6.55167 6.50277C6.13773 6.50277 6.10918 6.59141 5.92362 6.59141C5.70952 6.59141 5.48113 6.47322 5.48113 6.3107C5.48113 6.14819 5.62387 6.02999 6.05209 5.80838C6.62304 5.49813 7.15117 5.27651 7.42237 4.64123C8.26452 2.69104 10.1344 2.07052 10.8481 1.78981C11.1193 1.67162 11.262 1.5682 11.3905 1.30227C11.9614 0.223755 12.2184 0.105562 12.3754 0.105562C12.5324 0.105562 12.5181 0.386271 12.5895 0.726076C12.6751 1.12498 12.6751 1.43524 13.3032 1.59775C15.0874 2.0853 17.6995 3.78432 17.6995 6.88689C17.6995 9.98947 14.7448 11.9544 14.6021 12.0726C14.2738 12.3238 14.1596 12.5306 14.1596 12.7227C14.1596 12.8704 14.2452 13.0329 14.3309 13.2102C15.0446 14.6876 16.2721 15.648 17.6995 15.648C19.3981 15.648 20.7113 14.008 20.7113 12.309C20.7113 10.61 19.6122 9.59056 18.6558 9.28031C18.299 9.16211 18.142 9.16211 18.142 8.97005C18.142 8.74844 18.3846 8.82231 18.3846 8.4825C18.3846 8.23134 18.2704 8.29044 18.2704 7.89154C18.2704 7.61083 18.5987 7.52218 18.5987 7.09373C18.5987 6.75393 18.4417 6.63573 18.4417 6.44367C18.4417 6.19251 18.3561 6.22206 18.3561 5.67542C18.3561 5.52767 18.299 5.42425 18.4132 5.42425C18.5559 5.42425 18.6844 5.61632 18.8557 5.88225C19.2411 6.47322 19.5408 6.93122 19.8406 7.12328C21.9959 8.5416 22.4669 9.44282 22.9665 10.7134C23.0807 10.9941 23.1806 11.4817 23.5089 11.6737C23.7801 11.851 24.3796 12.0431 24.3796 12.2647" fill="white"/>
</svg>
