<svg width="157" height="34" viewBox="0 0 157 34" fill="none" xmlns="http://www.w3.org/2000/svg">
<path d="M89.7746 5.78839H85.5517V4.1377H82.5373V5.78839H78.3171V8.30787H80.7023C80.655 8.34209 80.6102 8.37632 80.5654 8.41317C79.5097 9.31618 78.9779 10.4588 78.9779 11.8409C78.9779 13.1388 79.5255 14.2103 80.6049 15.0581C81.5975 15.8479 82.7427 16.2401 84.0459 16.2401C85.2753 16.2401 86.381 15.8479 87.3604 15.0581C88.4451 14.2103 88.9874 13.1388 88.9874 11.8409C88.9874 10.4588 88.4661 9.31618 87.4183 8.41317C87.3762 8.37632 87.3314 8.34209 87.2841 8.30787H89.7693V5.78839H89.7746ZM85.4965 13.3863C85.0673 13.8365 84.5513 14.0603 83.9458 14.0603C83.3403 14.0603 82.7874 13.8365 82.3583 13.3863C81.9423 12.9625 81.737 12.4491 81.737 11.8409C81.737 11.2328 81.9423 10.6852 82.3583 10.2324C82.7874 9.79533 83.3166 9.57682 83.9458 9.57682C84.575 9.57682 85.0673 9.79533 85.4965 10.2324C85.9361 10.6852 86.1599 11.2222 86.1599 11.8409C86.1599 12.4596 85.9388 12.9467 85.4965 13.3863Z" fill="white"/>
<path d="M82.6192 17.1064H79.7838V22.1243C79.7838 22.7167 79.9049 23.1406 80.1445 23.3933C80.3472 23.6039 80.6816 23.7118 81.1502 23.7118H94.8981V21.066H82.6192V17.1064Z" fill="white"/>
<path d="M94.7611 5.72754H91.9283V18.5987H94.7611V12.899H97.0542V10.2347H94.7611V5.72754Z" fill="white"/>
<path d="M115.594 5.72754H99.6765V8.36812H112.761V11.5642H99.092V14.21H106.248V16.6216H99.6765V19.2674H112.761V23.7956H115.594V16.6216H109.062V14.21H116.441V11.5642H115.594V5.72754Z" fill="white"/>
<path d="M135.976 14.7076V5.72754H133.143V7.08074H130.168V5.72754H127.372V7.87844H122.873V5.72754H120.056V13.1201C120.056 13.7125 120.169 14.1337 120.396 14.3891C120.612 14.6023 120.949 14.7103 121.407 14.7103H126.741C126.356 14.9261 125.993 15.1894 125.648 15.5106C124.455 16.5926 123.86 17.9643 123.86 19.6123C123.86 21.2604 124.455 22.6399 125.648 23.7404C126.762 24.7697 128.081 25.2857 129.608 25.2857C131.134 25.2857 132.443 24.7724 133.57 23.7404C134.786 22.6399 135.397 21.263 135.397 19.6123C135.397 17.9616 134.786 16.5926 133.57 15.5106C132.54 14.5786 131.361 14.0731 130.037 13.981C130.121 13.7493 130.166 13.4676 130.166 13.1201V13.078H133.141V14.7103H135.973L135.976 14.7076ZM122.873 12.1276V10.2268H127.372V12.1276H122.873ZM131.619 17.5378C132.209 18.1038 132.503 18.7962 132.503 19.6123C132.503 20.4284 132.209 21.1208 131.619 21.6895C131.056 22.2397 130.392 22.5162 129.629 22.5162C128.865 22.5162 128.223 22.2397 127.662 21.6895C127.07 21.1235 126.775 20.4311 126.775 19.6123C126.775 18.7935 127.07 18.1038 127.662 17.5378C128.223 17.0007 128.878 16.7348 129.629 16.7348C130.379 16.7348 131.056 17.0033 131.619 17.5378ZM130.168 10.8218V9.33695H133.143V10.8218H130.168Z" fill="white"/>
<path d="M149.966 18.2733H153.265V19.6923H156.119V5.72852H153.286V15.9038H149.966V18.2733Z" fill="white"/>
<path d="M148.236 12.4383C148.486 12.2962 148.731 12.1303 148.968 11.9381C150.021 11.1167 150.55 10.0742 150.55 8.81575C150.55 7.46782 150.04 6.35946 149.026 5.48278C148.089 4.65875 146.996 4.24805 145.743 4.24805C144.49 4.24805 143.313 4.65875 142.363 5.48278C141.331 6.35946 140.817 7.46782 140.817 8.81575C140.817 10.0768 141.347 11.1167 142.402 11.9381C142.642 12.1277 142.889 12.2962 143.147 12.4383H139.783V14.9288H145.293V18.7936H148.028V14.9288H151.582V12.4383H148.236ZM147.152 10.3164C146.73 10.756 146.233 10.9719 145.648 10.9719C145.032 10.9719 144.522 10.756 144.103 10.3164C143.7 9.90305 143.497 9.40284 143.497 8.81575C143.497 8.22867 143.7 7.6916 144.103 7.25194C144.519 6.82808 145.032 6.61483 145.648 6.61483C146.264 6.61483 146.733 6.82808 147.152 7.25194C147.581 7.6916 147.797 8.21024 147.797 8.81575C147.797 9.38705 147.583 9.88989 147.152 10.3164Z" fill="white"/>
<path d="M143.937 21.0659V16.5166H141.141V22.1269C141.141 22.7192 141.26 23.1431 141.505 23.3958C141.715 23.6064 142.058 23.7144 142.526 23.7144H156.256V21.0685H143.935L143.937 21.0659Z" fill="white"/>
<path d="M52.2013 8.36069H49.7266V10.8828H52.2013V14.7002H55.0156V5.71484H52.2013V8.36069Z" fill="white"/>
<path d="M66.8889 11.2071C67.476 12.0574 68.637 12.6998 70.3798 13.1368C71.6435 13.4606 73.1126 13.6528 74.7896 13.7081V11.0412C72.9941 10.9833 71.5514 10.7279 70.4588 10.2751C69.2899 9.79593 68.6844 9.14566 68.6449 8.32689H74.787V5.67578H58.9856V8.32689H65.1092C65.0829 9.17199 64.4853 9.83805 63.3164 10.3172C62.237 10.7569 60.7942 11.0043 58.9856 11.0596V13.7107C60.61 13.6397 62.0579 13.4475 63.3348 13.1394C65.104 12.7024 66.286 12.06 66.8863 11.2097L66.8889 11.2071Z" fill="white"/>
<path d="M58.1906 15.4658V18.1143H65.4726V23.8562H68.2843V18.1143H75.5847V15.4658H58.1906Z" fill="white"/>
<path d="M49.2865 14.0241V11.8732C48.2598 11.681 47.3752 11.3862 46.8197 10.7964C46.2352 10.1751 45.7166 9.20103 45.6692 8.23483H49.2049V5.77327H45.5034V4.13574H42.481V5.77327H38.8242V8.23483H42.1941C42.1572 9.38795 41.6544 10.341 41.1436 10.7964C40.5565 11.323 39.7536 11.681 38.74 11.8732V14.7244C39.7272 14.6638 40.6987 14.3716 41.6596 13.8451C42.7022 13.2764 43.4815 12.3997 44.0027 11.5073C44.495 12.3971 45.2375 13.2659 46.2221 13.824C46.4722 13.9662 46.7223 14.0899 46.9803 14.1979C44.5635 14.8718 42.797 17.0491 42.797 19.6317C42.797 22.7541 45.3823 25.2815 48.5678 25.2815C51.7533 25.2815 54.336 22.7541 54.336 19.6317C54.336 16.7489 52.1351 14.369 49.2839 14.0241H49.2865ZM50.5502 21.6984C49.9868 22.246 49.3207 22.525 48.5599 22.525C47.7991 22.525 47.1541 22.2486 46.5907 21.6984C45.9983 21.1297 45.7034 20.44 45.7034 19.6212C45.7034 18.8024 45.9983 18.1127 46.5907 17.5493C47.1541 17.0122 47.8096 16.741 48.5599 16.741C49.3102 16.741 49.9894 17.0096 50.5502 17.5493C51.1399 18.1127 51.4322 18.8051 51.4322 19.6212C51.4322 20.4373 51.1399 21.1297 50.5502 21.6984Z" fill="white"/>
<path d="M42.1364 32.7583C41.9468 32.8584 41.5335 32.9531 41.0069 32.9531C39.6169 32.9531 38.7744 32.0844 38.7744 30.7522C38.7744 29.3121 39.7748 28.4434 41.1096 28.4434C41.6361 28.4434 42.0126 28.5539 42.1732 28.6382L41.9995 29.2727C41.7915 29.1831 41.5071 29.1042 41.1438 29.1042C40.254 29.1042 39.6116 29.6623 39.6116 30.7127C39.6116 31.6737 40.175 32.2897 41.1359 32.2897C41.4598 32.2897 41.7967 32.2239 42.0047 32.1265L42.1337 32.7557L42.1364 32.7583Z" fill="white"/>
<path d="M43.5791 28.5156V30.2664H45.4299V28.5156H46.2276V32.8885H45.4299V30.9614H43.5791V32.8885H42.7814V28.5156H43.5791Z" fill="white"/>
<path d="M49.5528 30.9492H47.9047V32.2339H49.7476V32.8895H47.1044V28.5166H49.6502V29.1721H47.9047V30.3016H49.5528V30.9492Z" fill="white"/>
<path d="M54.2941 30.6574C54.2941 32.1239 53.4069 32.961 52.1985 32.961C50.9901 32.961 50.1871 32.0212 50.1871 30.7338C50.1871 29.4464 51.0296 28.4434 52.2643 28.4434C53.4991 28.4434 54.2941 29.4096 54.2941 30.6574ZM51.0296 30.7233C51.0296 31.6131 51.4771 32.3187 52.2433 32.3187C53.0094 32.3187 53.4517 31.6052 53.4517 30.689C53.4517 29.8676 53.0436 29.0857 52.2433 29.0857C51.4429 29.0857 51.0296 29.8203 51.0296 30.7206V30.7233Z" fill="white"/>
<path d="M54.9471 32.8895V28.5166H55.8554L56.9848 30.3911C57.2771 30.8781 57.5298 31.3862 57.7325 31.8575H57.7457C57.693 31.2757 57.6746 30.7096 57.6746 30.0409V28.5166H58.4144V32.8895H57.5904L56.4478 30.9703C56.1687 30.4885 55.8765 29.9514 55.6632 29.4565L55.6422 29.4644C55.6738 30.0278 55.6817 30.607 55.6817 31.3257V32.8895H54.9471Z" fill="white"/>
<path d="M62.8031 32.6873C62.524 32.7926 61.979 32.9348 61.3946 32.9348C60.6548 32.9348 60.0967 32.7452 59.6807 32.3503C59.2911 31.9817 59.0646 31.4025 59.0699 30.7417C59.0699 29.3596 60.0572 28.4697 61.5025 28.4697C62.0422 28.4697 62.4634 28.5803 62.6635 28.6777L62.4898 29.3227C62.2502 29.2174 61.958 29.1332 61.4972 29.1332C60.5626 29.1332 59.9071 29.686 59.9071 30.7049C59.9071 31.7237 60.5179 32.2898 61.4262 32.2898C61.7105 32.2898 61.9264 32.2503 62.0291 32.1976V31.1077H61.2577V30.4785H62.8031V32.6926V32.6873Z" fill="white"/>
<path d="M64.4534 28.5153H65.2511V31.3507C65.2511 32.5565 64.6666 32.9593 63.7979 32.9593C63.5767 32.9593 63.2976 32.9224 63.1292 32.8566L63.2266 32.2143C63.3556 32.2511 63.532 32.2906 63.7189 32.2906C64.1743 32.2906 64.4534 32.0826 64.4534 31.3244V28.5127V28.5153Z" fill="white"/>
<path d="M66.8861 28.5156V31.0667C66.8861 31.9223 67.2441 32.3199 67.7812 32.3199C68.3604 32.3199 68.7026 31.925 68.7026 31.0667V28.5156H69.5003V31.014C69.5003 32.3646 68.8053 32.9596 67.7549 32.9596C66.7044 32.9596 66.0884 32.3962 66.0884 31.0193V28.5156H66.8861Z" fill="white"/>
<path d="M72.4885 28.5156V30.2664H74.3393V28.5156H75.137V32.8885H74.3393V30.9614H72.4885V32.8885H71.6908V28.5156H72.4885Z" fill="white"/>
<path d="M76.8931 31.6495L76.5167 32.8895H75.6926L77.0932 28.5166H78.1121L79.5337 32.8895H78.6781L78.2832 31.6495H76.8931ZM78.1437 31.0466L77.7988 29.9672C77.7145 29.7013 77.6434 29.4038 77.5776 29.1484H77.5645C77.4986 29.4012 77.4355 29.7066 77.3565 29.9672L77.0195 31.0466H78.1437Z" fill="white"/>
<path d="M80.1075 32.8895V28.5166H81.0158L82.1452 30.3911C82.4375 30.8781 82.6902 31.3862 82.8929 31.8575H82.9061C82.8534 31.2757 82.835 30.7096 82.835 30.0409V28.5166H83.5748V32.8895H82.7508L81.6082 30.9703C81.3291 30.4885 81.0369 29.9514 80.8236 29.4565L80.8026 29.4644C80.8342 30.0278 80.8421 30.607 80.8421 31.3257V32.8895H80.1075Z" fill="white"/>
<path d="M84.4595 28.5156H85.2519V30.527H85.273C85.3756 30.3585 85.4862 30.2032 85.5915 30.0531L86.7341 28.5156H87.7214L86.2155 30.3796L87.8188 32.8911H86.8842L85.6442 30.885L85.2545 31.3537V32.8911H84.4621V28.5183L84.4595 28.5156Z" fill="white"/>
<path d="M91.9123 30.6574C91.9123 32.1239 91.0224 32.961 89.8167 32.961C88.6109 32.961 87.8053 32.0212 87.8053 30.7338C87.8053 29.4464 88.6478 28.4434 89.8825 28.4434C91.1172 28.4434 91.9123 29.4096 91.9123 30.6574ZM88.6478 30.7233C88.6478 31.6131 89.0953 32.3187 89.8614 32.3187C90.6275 32.3187 91.0698 31.6052 91.0698 30.689C91.0698 29.8676 90.6618 29.0857 89.8614 29.0857C89.0611 29.0857 88.6478 29.8203 88.6478 30.7206V30.7233Z" fill="white"/>
<path d="M96.446 30.6574C96.446 32.1239 95.5561 32.961 94.3504 32.961C93.1446 32.961 92.339 32.0212 92.339 30.7338C92.339 29.4464 93.1815 28.4434 94.4162 28.4434C95.6509 28.4434 96.446 29.4096 96.446 30.6574ZM93.1815 30.7233C93.1815 31.6131 93.629 32.3187 94.3951 32.3187C95.1612 32.3187 95.6009 31.6052 95.6009 30.689C95.6009 29.8676 95.1928 29.0857 94.3951 29.0857C93.5974 29.0857 93.1815 29.8203 93.1815 30.7206V30.7233Z" fill="white"/>
<path d="M97.099 28.5156H97.8914V30.527H97.9125C98.0152 30.3585 98.1257 30.2032 98.231 30.0531L99.3736 28.5156H100.361L98.855 30.3796L100.458 32.8911H99.5237L98.2837 30.885L97.8941 31.3537V32.8911H97.1016V28.5183L97.099 28.5156Z" fill="white"/>
<path d="M105.653 32.6873C105.373 32.7926 104.829 32.9348 104.244 32.9348C103.504 32.9348 102.946 32.7452 102.53 32.3503C102.141 31.9817 101.914 31.4025 101.919 30.7417C101.919 29.3596 102.907 28.4697 104.352 28.4697C104.892 28.4697 105.313 28.5803 105.513 28.6777L105.339 29.3227C105.1 29.2174 104.807 29.1332 104.347 29.1332C103.412 29.1332 102.757 29.686 102.757 30.7049C102.757 31.7237 103.367 32.2898 104.276 32.2898C104.56 32.2898 104.776 32.2503 104.879 32.1976V31.1077H104.107V30.4785H105.653V32.6926V32.6873Z" fill="white"/>
<path d="M108.883 30.9492H107.235V32.2339H109.078V32.8895H106.434V28.5166H108.977V29.1721H107.232V30.3016H108.88V30.9492H108.883Z" fill="white"/>
<path d="M109.741 32.8895V28.5166H110.649L111.779 30.3911C112.071 30.8781 112.324 31.3862 112.527 31.8575H112.54C112.487 31.2757 112.469 30.7096 112.469 30.0409V28.5166H113.208V32.8895H112.384L111.242 30.9703C110.963 30.4885 110.671 29.9514 110.457 29.4565L110.436 29.4644C110.468 30.0278 110.476 30.607 110.476 31.3257V32.8895H109.741Z" fill="white"/>
<path d="M116.541 30.9492H114.893V32.2339H116.736V32.8895H114.093V28.5166H116.636V29.1721H114.891V30.3016H116.539V30.9492H116.541Z" fill="white"/>
<path d="M117.399 28.5758C117.697 28.5232 118.147 28.4863 118.608 28.4863C119.237 28.4863 119.666 28.589 119.958 28.8365C120.198 29.0366 120.335 29.342 120.335 29.7105C120.335 30.2739 119.95 30.6583 119.542 30.8084V30.8268C119.853 30.9453 120.043 31.2506 120.153 31.6719C120.29 32.2168 120.406 32.7223 120.498 32.8908H119.674C119.608 32.7618 119.506 32.4038 119.382 31.8588C119.258 31.2875 119.05 31.1058 118.597 31.0927H118.194V32.8908H117.402V28.5758H117.399ZM118.192 30.5082H118.666C119.203 30.5082 119.542 30.2239 119.542 29.7869C119.542 29.3077 119.205 29.0866 118.687 29.0866C118.434 29.0866 118.271 29.1076 118.194 29.1261V30.5082H118.192Z" fill="white"/>
<path d="M121.98 31.6495L121.604 32.8895H120.78L122.18 28.5166H123.199L124.621 32.8895H123.765L123.37 31.6495H121.98ZM123.231 31.0466L122.886 29.9672C122.802 29.7013 122.731 29.4038 122.665 29.1484H122.652C122.586 29.4012 122.523 29.7066 122.444 29.9672L122.107 31.0466H123.231Z" fill="white"/>
<path d="M125.195 28.5156H125.993V32.2224H127.791V32.8911H125.195V28.5183V28.5156Z" fill="white"/>
<path d="M130.468 28.5156V30.2664H132.319V28.5156H133.117V32.8885H132.319V30.9614H130.468V32.8885H129.671V28.5156H130.468Z" fill="white"/>
<path d="M137.877 30.6574C137.877 32.1239 136.99 32.961 135.781 32.961C134.573 32.961 133.77 32.0212 133.77 30.7338C133.77 29.4464 134.612 28.4434 135.847 28.4434C137.082 28.4434 137.877 29.4096 137.877 30.6574ZM134.612 30.7233C134.612 31.6131 135.06 32.3187 135.826 32.3187C136.592 32.3187 137.034 31.6052 137.034 30.689C137.034 29.8676 136.626 29.0857 135.826 29.0857C135.026 29.0857 134.612 29.8203 134.612 30.7206V30.7233Z" fill="white"/>
<path d="M138.508 32.0212C138.769 32.1712 139.159 32.3002 139.567 32.3002C140.08 32.3002 140.364 32.0607 140.364 31.7026C140.364 31.3709 140.143 31.1787 139.585 30.976C138.864 30.7154 138.403 30.331 138.403 29.7018C138.403 28.9883 139.001 28.4434 139.946 28.4434C140.42 28.4434 140.77 28.5487 140.999 28.6645L140.804 29.3095C140.649 29.2226 140.343 29.1015 139.935 29.1015C139.43 29.1015 139.209 29.3727 139.209 29.6254C139.209 29.9624 139.461 30.1177 140.046 30.3468C140.804 30.6311 141.175 31.0155 141.175 31.6447C141.175 32.345 140.643 32.9558 139.514 32.9558C139.053 32.9558 138.574 32.8268 138.332 32.682L138.506 32.0212H138.508Z" fill="white"/>
<path d="M141.862 28.5758C142.149 28.5232 142.544 28.4863 143.084 28.4863C143.668 28.4863 144.095 28.6074 144.374 28.8444C144.632 29.0576 144.803 29.4025 144.803 29.8106C144.803 30.2186 144.674 30.5688 144.427 30.8031C144.108 31.1216 143.611 31.2717 143.045 31.2717C142.894 31.2717 142.76 31.2664 142.655 31.2454V32.8934H141.862V28.5785V28.5758ZM142.652 30.6109C142.75 30.6372 142.879 30.6451 143.042 30.6451C143.639 30.6451 144.003 30.3529 144.003 29.8395C144.003 29.3525 143.666 29.0918 143.116 29.0918C142.894 29.0918 142.739 29.1129 142.655 29.1313V30.6109H142.652Z" fill="white"/>
<path d="M146.251 28.5156V32.8885H145.453V28.5156H146.251Z" fill="white"/>
<path d="M147.97 29.1843H146.725V28.5156H150.029V29.1843H148.771V32.8885H147.97V29.1843Z" fill="white"/>
<path d="M150.908 31.6495L150.532 32.8895H149.708L151.108 28.5166H152.127L153.549 32.8895H152.693L152.298 31.6495H150.908ZM152.159 31.0466L151.814 29.9672C151.73 29.7013 151.659 29.4038 151.593 29.1484H151.58C151.514 29.4012 151.451 29.7066 151.372 29.9672L151.035 31.0466H152.159Z" fill="white"/>
<path d="M154.123 28.5156H154.921V32.2224H156.719V32.8911H154.123V28.5183V28.5156Z" fill="white"/>
<path d="M25.6032 22.2574C25.6032 22.2574 23.2917 28.8444 16.215 29.0129C11.4157 29.1261 7.26655 26.0827 5.65008 21.5624C3.66504 15.6362 6.73212 9.09134 12.9374 6.0032C15.2146 4.91327 17.6288 4.36041 20.1167 4.36041C23.6076 4.36041 27.0801 5.4556 30.1551 7.52753L30.2236 7.57491C30.9502 8.09092 31.1345 8.20149 31.4188 8.20149C31.4188 8.20149 31.7479 8.19623 31.9085 8.05933C32.0717 7.9198 32.098 7.77763 32.098 7.77763C32.2981 7.33534 31.9664 7.01415 31.7689 6.82197C29.1099 4.2551 24.7686 2.54912 20.4273 2.36747C20.2352 2.3622 20.0403 2.35957 19.8508 2.35957C15.4042 2.35957 11.6974 3.63379 7.86154 6.74562C11.9238 3.00194 15.7043 1.74352 20.7117 1.4039C21.8148 1.33019 23.4102 1.4276 24.1842 1.4276C25.1872 1.4276 25.0951 0.661486 24.329 0.471933C22.7678 0.0796629 18.3949 -0.641692 12.5319 1.22225C7.01118 2.97298 2.8647 6.81933 0.998131 11.9109C-0.752604 16.684 -0.18921 21.6808 2.60144 25.9984C5.61849 30.3845 10.2757 32.9329 15.8228 33.0514C18.8319 33.1172 21.046 32.3959 23.4681 31.0953C27.5224 28.7917 29.747 24.7742 29.9076 20.7383H26.0034C25.9217 21.2622 25.7954 21.7361 25.6032 22.2521V22.2574Z" fill="white"/>
<path d="M25.9008 11.7766C24.5239 10.6341 22.5494 9.48357 19.8745 9.30718C18.3555 9.20714 17.1813 9.32035 16.1941 9.77054C16.1941 9.77054 15.2463 10.1839 15.3437 10.5946C15.4622 11.0948 16.252 11.1132 16.252 11.1132C16.5942 11.0763 16.9417 11.0579 17.2866 11.0579C19.3164 11.0579 21.2146 11.6845 22.781 12.8692C23.2207 13.1983 23.613 13.5195 23.971 13.917H25.9008V11.7793V11.7766Z" fill="white"/>
<path fill-rule="evenodd" clip-rule="evenodd" d="M29.2444 14.7252V12.0557H26.7144V14.7252H24.037V17.2605H26.7144V19.93H29.2444V17.2605H31.9192V14.7252H29.2444Z" fill="white"/>
<path d="M14.741 22.5995V14.7988H12.7665V17.8396H10.0864V14.7988H8.1145V22.5995H10.0864V19.3823H12.7665V22.5995H14.741Z" fill="white"/>
<path d="M16.0757 14.7988V22.5995H18.0502V20.8092L19.2533 19.2112L20.9698 22.5995H23.1813L20.6039 17.5842L22.6679 14.7988H20.7408L18.0502 18.4635V14.7988H16.0757Z" fill="white"/>
</svg>
